<svg xmlns="http://www.w3.org/2000/svg" viewBox="0 0 256 256" fill="none" role="img" aria-labelledby="title desc">
  <title id="title">LeaseBase Emergence Mark</title>
  <desc id="desc">A circular ascent mark with upward motion and a geometric L monogram.</desc>
  <defs>
    <linearGradient id="lbBrandGradient" x1="40" y1="38" x2="224" y2="222" gradientUnits="userSpaceOnUse">
      <stop offset="0" stop-color="#18D7F0"/>
      <stop offset="0.62" stop-color="#5EEA7A"/>
      <stop offset="1" stop-color="#D9FF1F"/>
    </linearGradient>
  </defs>
  <g id="leasebase-mark">
    <g id="outer-loop">
      <path d="M42 180C30 154 29 123 40 95C57 53 95 26 140 26C171 26 201 39 223 62" stroke="url(#lbBrandGradient)" stroke-width="18" stroke-linecap="round"/>
      <path d="M226 60L198 64L209 38L236 40L232 66L226 60Z" fill="url(#lbBrandGradient)"/>
      <path d="M222 95C229 111 232 129 230 147C223 196 181 232 132 232C95 232 62 212 42 180" stroke="url(#lbBrandGradient)" stroke-width="18" stroke-linecap="round"/>
    </g>
    <g id="ascent-cues">
      <path d="M107 110L208 34" stroke="url(#lbBrandGradient)" stroke-width="16" stroke-linecap="round"/>
      <path d="M205 34L190 36L197 22L214 23L211 40L205 34Z" fill="url(#lbBrandGradient)"/>
      <path d="M154 120L224 74" stroke="url(#lbBrandGradient)" stroke-width="12" stroke-linecap="round"/>
      <path d="M222 73L210 74L216 63L230 64L227 77L222 73Z" fill="url(#lbBrandGradient)"/>
      <path d="M169 147L229 122" stroke="url(#lbBrandGradient)" stroke-width="10" stroke-linecap="round"/>
      <path d="M227 122L217 120L223 112L234 113L233 125L227 122Z" fill="url(#lbBrandGradient)"/>
    </g>
    <g id="monogram-l">
      <path d="M95 94H160V114H118V168H95V94Z" fill="url(#lbBrandGradient)"/>
      <path d="M95 168H173V190H95V168Z" fill="url(#lbBrandGradient)"/>
    </g>
  </g>
</svg>
