<svg xmlns="http://www.w3.org/2000/svg" viewBox="0 0 64 64" fill="none" role="img" aria-labelledby="title">
  <title id="title">LeaseBase Favicon</title>
  <defs>
    <linearGradient id="lbFavGradient" x1="8" y1="6" x2="58" y2="58" gradientUnits="userSpaceOnUse">
      <stop offset="0" stop-color="#18D7F0"/>
      <stop offset="0.62" stop-color="#5EEA7A"/>
      <stop offset="1" stop-color="#D9FF1F"/>
    </linearGradient>
  </defs>
  <g id="favicon-mark">
    <path d="M11 45C7 37 7 28 10 21C15 10 26 5 38 5C47 5 55 8 61 14" stroke="url(#lbFavGradient)" stroke-width="4.5" stroke-linecap="round"/>
    <path d="M61 14L54 15L57 9L63 9L62 16L61 14Z" fill="url(#lbFavGradient)"/>
    <path d="M60 22C62 27 63 32 62 38C60 51 49 59 36 59C26 59 17 54 11 45" stroke="url(#lbFavGradient)" stroke-width="4.5" stroke-linecap="round"/>
    <path d="M24 25L50 6" stroke="url(#lbFavGradient)" stroke-width="4" stroke-linecap="round"/>
    <path d="M49 6L45 7L47 3L52 3L51 8L49 6Z" fill="url(#lbFavGradient)"/>
    <path d="M22 22H38V28H28V41H22V22Z" fill="url(#lbFavGradient)"/>
    <path d="M22 41H42V47H22V41Z" fill="url(#lbFavGradient)"/>
  </g>
</svg>
